<svg width="512" height="512" viewBox="0 0 512 512" fill="none" xmlns="http://www.w3.org/2000/svg">
  <defs>
    <linearGradient id="bg" x1="64" y1="64" x2="448" y2="448" gradientUnits="userSpaceOnUse">
      <stop stop-color="#10B981"/>
      <stop offset="1" stop-color="#0F766E"/>
    </linearGradient>
    <linearGradient id="road" x1="256" y1="128" x2="256" y2="404" gradientUnits="userSpaceOnUse">
      <stop stop-color="#FFFFFF" stop-opacity="0.95"/>
      <stop offset="1" stop-color="#ECFEFF" stop-opacity="0.95"/>
    </linearGradient>
    <filter id="shadow" x="40" y="40" width="432" height="432" filterUnits="userSpaceOnUse" color-interpolation-filters="sRGB">
      <feDropShadow dx="0" dy="14" stdDeviation="16" flood-color="#065F46" flood-opacity="0.35"/>
    </filter>
  </defs>

  <g filter="url(#shadow)">
    <rect x="64" y="64" width="384" height="384" rx="92" fill="url(#bg)"/>
  </g>

  <path d="M170 372C170 295 204 224 256 140C308 224 342 295 342 372H170Z" fill="url(#road)"/>
  <path d="M256 180L283 230H229L256 180Z" fill="#0F766E" fill-opacity="0.35"/>

  <rect x="247" y="245" width="18" height="34" rx="9" fill="#0F766E" fill-opacity="0.55"/>
  <rect x="247" y="295" width="18" height="34" rx="9" fill="#0F766E" fill-opacity="0.55"/>
  <rect x="247" y="345" width="18" height="22" rx="9" fill="#0F766E" fill-opacity="0.55"/>

  <circle cx="256" cy="128" r="28" fill="#ECFDF5"/>
  <path d="M246 128L253 135L268 120" stroke="#10B981" stroke-width="10" stroke-linecap="round" stroke-linejoin="round"/>
</svg>